# xmcd CD database file
#
# Track frame offsets:
#	150
#	22017
#	39029
#	59744
#	78662
#	95807
#	104672
#	145320
#	190230
#	236206
#	249951
#	251625
#	260189
#	280783
#	283678
#	301689
#	324285
#
# Disc length: 4781 seconds
#
# Revision: 0
# Processed by: cddbd v1.5.2PL0 Copyright (c) Steve Scherf et al.
# Submitted via: CDex 1.51
#
DISCID=fc12ab11
DTITLE=EUPHORIUM_freakestra - Dal Ngai
DYEAR=2003
DGENRE=Jazz
TTITLE0=soujhmar #3
TTITLE1=Schach für präpariertes Klavier, Pt. I
TTITLE2=Noch nie worden schon, geimmert.
TTITLE3=bazeema
TTITLE4=Seibobleier soschge
TTITLE5=o.T., standardisierte E-Musik, 3-D
TTITLE6=Schach für präpariertes Klavier, Pt. II
TTITLE7=Die mitfühlende Bühnenschaft (Frisur oder Gänsebraten Büro and Schlacht)
TTITLE8=Quartett No.1 ...freier Ernte
TTITLE9=Schach für präpariertes Klavier, Pt. III
TTITLE10=Tanzbaer (für Tschezpend)
TTITLE11=Rungsn (für Solo-Violine und Gewitter)
TTITLE12=Dal Ngai (Segellicht!)
TTITLE13=Schach für präpariertes Klavier, Pt. IV
TTITLE14=Steffz, Eps, Henß vom Tuz
TTITLE15=Café generell
TTITLE16=goux `taû
EXTD=YEAR: 2003
EXTT0=
EXTT1=
EXTT2=
EXTT3=
EXTT4=
EXTT5=
EXTT6=
EXTT7=
EXTT8=
EXTT9=
EXTT10=
EXTT11=
EXTT12=
EXTT13=
EXTT14=
EXTT15=
EXTT16=
PLAYORDER=
